<?xml version="1.0" encoding="UTF-8"?>
<svg id="Calque_1" xmlns="http://www.w3.org/2000/svg" version="1.1" viewBox="0 0 704.7 624.8">
  <!-- Generator: Adobe Illustrator 29.8.2, SVG Export Plug-In . SVG Version: 2.1.1 Build 3)  -->
  <defs>
    <style>
      .st0 {
        fill: #31281f;
      }

      .st1 {
        fill: #9398ab;
      }

      .st2 {
        fill: #363e51;
      }

      .st3 {
        fill: #86a799;
      }

      .st4 {
        fill: #535971;
      }

      .st5 {
        fill: #545a71;
      }

      .st6 {
        fill: #48669d;
      }

      .st7 {
        fill: #3c5a87;
      }

      .st8 {
        fill: #fdb5b1;
      }

      .st9 {
        fill: #fc7e7e;
      }
    </style>
  </defs>
  <path class="st3" d="M420.4,103.1c2.2,14.5,2.4,57.9,27.3,45.8,8.5-4.1,7.6-10.2,10.7-16.8s1.9-1.8,2-2c24.1,3.1,31.9,29.5,36.7,49.8,5,21.1,8.5,43.7,11.3,65.2-.4,0-1.8,1.5-4,2-18.6,4.4-40.8,6.8-60,10s-2.6,1.1-4,1c-1.1-5.5-.6-11-1-16.5s.6-3.3-1.5-2.5-8.1,8.5-10.5,10.5-10.5,8.4-14,10.5-5.8,2.1-8,3c4-27.8,6.9-63.6,5-91.5,0-1.1-1.3-14.6-4-11.5,2.5,36.7-.1,73.6-5,110-3.3-.7-4.8.1-7,0-6.2-.4-15.4-2-21.5-2h-25c-8.1,0-17-1.1-25.5-1-1.9,0-4.2-.3-6,0,.3-11.1-.4-22.4,0-33.5s1.1-22.2,2-33c1.7-18.4,5.3-36.5,9-54.5-2-.4-2.4.9-3.1,2.4-2.7,6-2.8,15.2-4.9,21.6l-4.8-11.7-3.2-2.3c-1.6,1.9,6.9,18.1,7,22.5,0,6.3-2.5,16.1-3,23-1,14.3-1.8,29.3-2,43.5-10.9-6.2-21.4-13-32.3-19.2-16.8-9.5-36.3-17.8-52.3-27.7-16.7-10.2-23.2-28.1-19.3-47.2,19.1-5.6,38.7-9.1,57.5-16,18.8-6.9,36.4-17.5,55.2-24.8,31.6-12.3,65.3-20.7,98.3-7.2ZM461.3,148.1c-.1,0-2.9-.1-3,0-.5.5,1,5.8,1,7.5.6,17.8-2.4,34.3-8,51.1-3.6,10.8-9.5,20.7-13,31.5,2.3.1,2.1.6,3.3-1.2,9-14.4,19.4-47.4,20.7-64.3s.3-23.4-1-24.5Z"/>
  <path class="st6" d="M209.4,151.1c-3.9,19.1,2.7,36.9,19.3,47.2,16.1,9.9,35.6,18.2,52.3,27.7s21.4,13,32.3,19.2c0,7.7.3,15.3,1,23,1.3.4,1.9-1,2-1,1.8-.3,4.1,0,6,0,0,3,.1,6,0,9-1.7,43.2-6.6,91.8-4,134.5.3,4.2.9,12.8,4,15.5-4,3.1-10.1,3.8-15,5-5.8-19.4-22.5-46.8-37-61-.2-4.9,2.8-9.4,4-14,2.5.1,2.6-1.4,3.3-3.2,2.1-5.5,9.7-28.8,9.7-33.3s-.1-2.2-1.5-1.5c-2.6,1.4-10.1,32-11.5,37-26.5-10.9-52.6-23.3-76.9-38.6-25.3-15.9-62.1-42.3-64.1-74.4v-1c-.2-3.6,0-7.4,0-11v-1c2.5-52.7,30.6-64.6,76-78Z"/>
  <path class="st8" d="M394.4,276.1c-1.4,13-1.9,26-3,39-1.7,19.9-4.9,40-6,60-.1,2.6,0,5.3.1,7.9,1.5.5,3.5.5,4.9,1.1,5.1,2.4,16.4,11.1,19,16s3.5,14.6,3,19-1.5,5.7-3,7c.2-4.8-.3-9.4-2.8-13.7s-2-3.5-4.2-.8c4.8,5.9,3.2,11.9,5,18.5-1.5,1.6-2.1,3.7-4.1,5.4-4.4,3.9-8.2,5-12.9,7.6-1.3-6.7-1.1-13.7-3.3-20.2-.7-2.1-1.9-6-4.7-5.8,2.4,9.2,5.2,18.3,5,28l-10,4c17.5,2.6,34.7,6.4,52,10l-3,14c-6.6-6.1-13-7.4-21.2-3.7-12.1,5.4-12,16.7-29,14.5-8.4-1.1-14.2-6-21.8-8.7,1.1-2.9,8.9-22.1,8-23-2.7-.4-6.6.6-9,0-2.3-.5-10.7-8.8-12-11s-.6-3.7-1.8-5.7c-5.1-8.7-12.2-5.1-17.2-9.3s-3.8-11.3-4-15.5c-2.6-42.8,2.3-91.4,4-134.5h72ZM366.4,452.1c.7-.7-2-17.2-2.7-19.8s-4.1-11.6-6.3-9.2c3.2,9.4,6.4,18.9,6,29,.8-.1,2.8.2,3,0Z"/>
  <path class="st5" d="M147.4,329.1c11.5,2.8,23.3,2.7,35,5.5,147.3,35.3,148.5,247.3,0,285.5-117.9,30.3-218.4-91.2-169.9-202.4,25.2-57.7,74.2-83,134.9-88.6ZM137.2,346.4c-101.7,7.8-156.2,125.3-95.6,208,54.9,75,168.3,70.5,217.2-8.4,56.5-91-15.2-207.8-121.6-199.6Z"/>
  <path class="st5" d="M554.4,236.1l26.2,3.3c89.5,17.4,135.5,118.1,88.2,197.6-18.9,31.9-43.5,45.5-76.4,59.1-10.6,4.4-39.3,4.9-51.5,4-33.1-2.4-66-22.7-87.5-47,2.1-4.5,4.8-10.4,7-15,57.1,77.9,182.6,57.4,208.7-36.8,27.2-98.4-71.7-180.8-163.7-139.2-.2-3-.7-5.6-1-8s.2-4.7,0-7c2.2-.5,3.6-1.9,4-2,16.1-4,29.2-7.5,46-9Z"/>
  <path class="st5" d="M430.4,86.1c-8.4-11.8-7.5-35.3-4.5-49C434,.4,458.5-6.3,491.9,5.1s10.3,5.3,13.2,5.8c4.3.8,11-1.5,16.7-.7,8.8,1.2,17.8,7.5,19.3,16.7,3,17.6-5.1,29.4-21.8,34.3-3,.9-8.3,1.8-11.5,2-6.8.5-30.5.8-35.8-1.2s-6.1-15.7-16.9-13.6-11.1,10.6-7.8,18.3,8.8,7.6,0,13.9c-5.7,4.1-14.2,3.9-16.9,5.6Z"/>
  <path class="st5" d="M426.4,473.1c2.1,2,3.8,5.6,6,7.5,8.1,6.8,29.3,15.5,39.9,22.1,4.8,3,28.2,16.7,24,23.3-3.3,1-6.8,1.9-10.3,2.2-33.1,2.5-75.8-.4-109-4-6.3-.7-26.9-2.4-31.2-4.8-7.2-3.9-.4-21.6,1.7-27.8s4.9-11.1,7-16.5c7.5,2.8,13.4,7.6,21.8,8.7,17,2.2,16.9-9,29-14.5,8.2-3.7,14.7-2.4,21.2,3.7Z"/>
  <path class="st2" d="M270.4,370.1c14.5,14.2,31.2,41.6,37,61,1.5,4.9,3.2,13.8,4,19,1.7,10.8,2.8,24.1,2,35-.2,2.6-1.5,7.8-2,11-2.9,18.9-9.7,40.8-20,57-10.6,16.8-29.2,34.9-46.1,45.4-18.8,11.7-40.5,20.5-62.9,21.6,148.5-38.2,147.3-250.2,0-285.5-11.7-2.8-23.5-2.7-35-5.5,46.3-4.3,89.4,8.3,123,41Z"/>
  <path class="st8" d="M519.4,61.1c1.8,6.5-3.3,14.9-3.7,20.6s3.5,14.5.8,18-7.8,0-10.1.9-8.1,9.7-11,12c-10,8.1-17.2,5.2-29,4.5.3-2-8-6.3-9.6-8.4l-8.3-12.6,10,36c-3.1,6.7-2.2,12.8-10.7,16.8-25,12-25.1-31.3-27.3-45.8,2.4-2.2,8.6-16.1,10-17,2.7-1.7,11.2-1.5,16.9-5.6,8.9-6.3,2.9-7.1,0-13.9s-1.4-16.6,7.8-18.3,13.4,12.3,16.9,13.6c5.4,2,29.1,1.7,35.8,1.2,3.1-.2,8.5-1.2,11.5-2ZM467.4,63.1c.6-.5-2.8-7-3.6-7.9-6.5-8.5-15.8-3.1-14.4,7.4,1.1,7.9,3.5,4.3,6.3,4.8s1.8,2.3,3.6,1.7c1.8-7.2-6.2-4.2-7-5s-.6-13.3,7-9.5,5.2,11.1,8,8.5Z"/>
  <path class="st2" d="M554.4,236.1c160.5-14.6,206.3,194.3,69.7,252.2-9.8,4.1-21,7.9-31.7,7.8,32.9-13.5,57.5-27.2,76.4-59.1,47.2-79.5,1.3-180.2-88.2-197.6l-26.2-3.3Z"/>
  <path class="st7" d="M412.4,419.1l61-18c-3.9,11.1-8.1,22.1-12.5,33s-.3,3.5-.5,4c-2.2,4.6-4.9,10.5-7,15s-4.5,9.6-5.7,9.9c-6.2-.8-12.3-2.6-18.3-3.9-17.3-3.6-34.5-7.4-52-10l10-4c3.6,1.1,2.8-1.9,3-2,4.7-2.5,8.5-3.7,12.9-7.6s2.6-3.9,4.1-5.4,1.7,2.1,2-4c1.5-1.3,2.8-5.2,3-7Z"/>
  <path class="st5" d="M311.4,496.1c15.4,10.4,27.9,24.9,44.3,34.2,4,2.3,18.5,7.8,20.4,10.1s1.6,7.2,1.1,9c-1,3.4-10.1,4.5-13.3,4.7-17.1,1.3-41.7.8-59.1,0-4.3-.2-8.8-1.8-13.5-1,10.3-16.2,17.1-38.1,20-57Z"/>
  <path class="st6" d="M353.4,452.1l-19.1,36.9-20.9-3.9c.8-10.9-.3-24.2-2-35l30-9c1.3,2.2,9.7,10.5,12,11Z"/>
  <path class="st9" d="M458.4,132.1l-10-36,8.3,12.6c1.7,2.1,10,6.4,9.6,8.4s-4.1,6.8-5.2,9.3-.5,3-.8,3.7-1.5.8-2,2Z"/>
  <path class="st0" d="M274.4,355.1c1.4-5,8.9-35.6,11.5-37s1.5.3,1.5,1.5c0,4.5-7.7,27.8-9.7,33.3-.7,1.8-.8,3.3-3.3,3.2,0-.3,0-.7,0-1Z"/>
  <path class="st1" d="M133.4,242.1c0-.5,0-.8,0-1v1Z"/>
  <path class="st1" d="M133.4,230.1c0-.3,0-.5,0-1v1Z"/>
  <path class="st7" d="M413.4,260.1l32,17c1.2,23.4,1.9,47.1,4,70.5,1.2,12.8,2.3,26.2,6,38.5l-46,14c-2.6-4.9-13.9-13.6-19-16,2.6-6.6,3.5-7.2-4-9,2.1-7.4,4.6-14.7,6.3-22.2,2.8-12.3,6.9-26.7-1.3-37.8,1.1-13,1.6-26,3-39,.2-1.9-.1-4,0-6,2.2.1,3.7-.7,7,0s1.8,1.3,3,1c.7-2.6.6-5.5,1-8,2.2-.9,6.2-2,8-3Z"/>
  <path class="st9" d="M394.4,270.1c-.1,2,.2,4.1,0,6h-72c.1-3,0-6,0-9,8.5-.1,17.4,1,25.5,1h25c6.1,0,15.3,1.6,21.5,2Z"/>
  <path class="st9" d="M504.4,247.1c.2,2.3-.2,4.7,0,7l-60,10c0-2.3,0-4.7,0-7,19.2-3.2,41.4-5.6,60-10Z"/>
  <path class="st0" d="M313.4,245.1c.2-14.2,1-29.2,2-43.5.5-6.9,3.1-16.7,3-23s-8.6-20.6-7-22.5l3.2,2.3,4.8,11.7c2.1-6.4,2.2-15.6,4.9-21.6s1-2.8,3.1-2.4c-3.7,18-7.3,36.1-9,54.5-1,10.8-1.7,22.2-2,33s.4,22.4,0,33.5c-.1,0-.7,1.4-2,1-.7-7.7-1.1-15.3-1-23Z"/>
  <path class="st0" d="M405.4,263.1c-.4,2.5-.3,5.4-1,8-1.2.3-2.2-.8-3-1,4.9-36.4,7.5-73.3,5-110,2.7-3.1,3.9,10.4,4,11.5,1.9,27.9-1,63.7-5,91.5Z"/>
  <path class="st0" d="M461.3,148.1c1.3,1.1,1.3,21.2,1,24.5-1.3,16.9-11.7,49.9-20.7,64.3s-.9,1.4-3.3,1.2c3.6-10.8,9.4-20.6,13-31.5,5.6-16.8,8.6-33.3,8-51.1,0-1.6-1.5-7-1-7.5s2.8,0,3,0Z"/>
  <path class="st1" d="M341.4,441.1l-30,9c-.8-5.2-2.5-14.1-4-19,4.9-1.2,11-1.9,15-5,5.1,4.2,12.1.6,17.2,9.3,1.2,2,1.4,5,1.8,5.7Z"/>
  <path class="st1" d="M460.4,438.1c.2-.5,0-2.5.5-4,4.4-10.9,8.6-21.9,12.5-33l-61,18c.5-4.4-.9-15.1-3-19l46-14c5.5,3,13.1,2,17.9,5.6,4.5,3.3,5,9.9,9.1,13.4-1.7.3.4,3,.8,3.7,50.8,86.6,178.9,30.6,152.4-63.4-15.3-54.6-80.6-76.1-127.3-45.2-.6-12.6-2-25.4-3-38,92-41.6,191,40.8,163.7,139.2-26.1,94.2-151.6,114.7-208.7,36.8Z"/>
  <path class="st6" d="M386.4,375.1h-1c1.1-20,4.3-40.1,6-60,8.2,11.1,4.1,25.5,1.3,37.8-1.7,7.5-4.2,14.8-6.3,22.2Z"/>
  <path class="st9" d="M366.4,452.1c-.2.2-2.2-.1-3,0,.4-10.1-2.8-19.6-6-29,2.2-2.4,6,8.1,6.3,9.2.7,2.6,3.4,19.1,2.7,19.8Z"/>
  <path class="st9" d="M390.4,443.1c-.2.1.6,3.1-3,2,.2-9.7-2.6-18.8-5-28,2.8-.3,4,3.7,4.7,5.8,2.2,6.5,2,13.5,3.3,20.2Z"/>
  <path class="st9" d="M409.4,426.1c-.3,6.1-1.1,3-2,4-1.8-6.6-.2-12.6-5-18.5,2.2-2.7,2.9-1.6,4.2.8,2.5,4.3,3,8.9,2.8,13.7Z"/>
  <path class="st1" d="M137.2,346.4c106.4-8.2,178.1,108.6,121.6,199.6-49,78.9-162.3,83.4-217.2,8.4-60.6-82.7-6.1-200.2,95.6-208ZM135.2,385.4c-63.9,6.5-99.7,80.6-69,136.4,39.1,71,147.1,60,169.7-17.7,19.2-66-33.2-125.6-100.7-118.7Z"/>
  <path class="st8" d="M504.4,254.1c.3,2.4.8,5,1,8,1,12.6,2.4,25.4,3,38s.3,31.7.9,47.4c.3,1.3,2.3.3,3.1.6,3.4,1.3,8.2,3.3,11.3,5.2s9.1,7.8,9.7,8.8c1.5,2.8,3.7,15.9,3,19s-5.5,8.8-8,10c.3-3.9,0-10.3-1.7-13.7s-2.5-2-3.3-1.2,4,14.7,2,18c-2.1.9-5.2,4.1-7,5s-2.5.3-4,1c0-6,.4-12.2-1.5-18s0-2.4-2.5-2c.3,7.3,2.4,14.7,0,22-3.5,1.2-7.3,2.4-11,3,.6-5.2.3-18.5-6-20,2.4,7.4,3.7,14.1,3,22-5.4.8-9.4,2-14-2-4-3.5-4.6-10.1-9.1-13.4-4.8-3.6-12.4-2.6-17.9-5.6-3.7-12.3-4.8-25.7-6-38.5-2.2-23.4-2.8-47.1-4-70.5-.2-4.5-.9-8.4-1-13l60-10Z"/>
  <path class="st9" d="M467.4,63.1c-2.8,2.6-5.6-7.3-8-8.5-7.7-3.8-8.1,8.4-7,9.5s8.8-2.2,7,5c-1.8.6-2.3-1.5-3.6-1.7-2.8-.5-5.2,3.1-6.3-4.8-1.4-10.4,7.9-15.9,14.4-7.4s4.1,7.4,3.6,7.9Z"/>
  <path class="st4" d="M482.4,405.1c4.6,4,8.6,2.8,14,2s2.6,1.1,3-2c3.7-.6,7.5-1.8,11-3s2.7-1.4,4-2,3.3-.7,4-1c18.9,22.5,55.5,19,71.2-5.3,22.3-34.4-8.5-78.8-48.3-69.3-11.4,2.7-25.8,11.6-29,23.5-.8-.3-2.7.7-3.1-.6-.6-15.7-.2-31.7-.9-47.4,46.7-30.8,111.9-9.3,127.3,45.2,26.4,94-101.6,150-152.4,63.4-.4-.7-2.6-3.4-.8-3.7Z"/>
  <path class="st4" d="M135.2,385.4c67.5-6.9,119.9,52.7,100.7,118.7-22.6,77.6-130.5,88.7-169.7,17.7-30.7-55.7,5.1-129.9,69-136.4ZM142,426.5c-64,.9-65.4,95.2-6.2,100.6,74.3,6.7,74.4-101.6,6.2-100.6Z"/>
  <path class="st2" d="M518.4,399.1c1.8-.9,4.9-4.1,7-5s2.6,2.2,3-3c2.5-1.2,7.5-7.8,8-10,7.5-2.7,22.1-3.2,21-14.4-1.2-12.4-16.5-8.5-24-4.6-.6-1.1-8.2-8-9.7-8.8-3.1-1.9-7.9-3.8-11.3-5.2,3.2-11.9,17.5-20.8,29-23.5,39.8-9.5,70.5,34.8,48.3,69.3-15.7,24.3-52.4,27.7-71.2,5.3Z"/>
  <path class="st1" d="M536.4,381.1c.7-3.1-1.5-16.2-3-19,7.5-3.9,22.8-7.8,24,4.6,1.1,11.2-13.5,11.7-21,14.4Z"/>
  <path class="st9" d="M499.4,405.1c-.4,3.1-.6,1.6-3,2,.7-7.9-.6-14.6-3-22,6.3,1.5,6.6,14.8,6,20Z"/>
  <path class="st9" d="M510.4,402.1c2.4-7.3.3-14.7,0-22,2.4-.4,1.9.3,2.5,2,1.9,5.8,1.6,12,1.5,18-1.3.6-1.1,1-4,2Z"/>
  <path class="st9" d="M525.4,394.1c2-3.3-2.6-17.4-2-18s2.5-.4,3.3,1.2c1.7,3.5,2,9.9,1.7,13.7-.4,5.2-.6,1.9-3,3Z"/>
  <path class="st2" d="M142,426.5c68.3-1,68.2,107.3-6.2,100.6-59.2-5.4-57.9-99.7,6.2-100.6ZM142.1,467.3l-42.1,12.9c-9.4,7.3-4.2,19.2,7.8,17.8,4.4-.5,35.4-10,38.9-12.1,10.1-5.9,5-19.2-4.6-18.6Z"/>
  <path class="st1" d="M142.1,467.3c9.6-.6,14.7,12.7,4.6,18.6-3.5,2.1-34.5,11.6-38.9,12.1-12,1.4-17.2-10.5-7.8-17.8l42.1-12.9Z"/>
</svg>