<?xml version="1.0" encoding="UTF-8"?>
<svg id="Calque_1" xmlns="http://www.w3.org/2000/svg" version="1.1" viewBox="0 0 453.3 447.8">
  <!-- Generator: Adobe Illustrator 29.8.2, SVG Export Plug-In . SVG Version: 2.1.1 Build 3)  -->
  <defs>
    <style>
      .st0 {
        fill: #353958;
      }

      .st1 {
        fill: #e9744f;
      }

      .st2 {
        fill: #eda886;
      }

      .st3 {
        fill: #366083;
      }

      .st4 {
        fill: #4174a0;
      }

      .st5 {
        fill: #ea4949;
      }

      .st6 {
        fill: #dbdff1;
      }
    </style>
  </defs>
  <path class="st5" d="M211.8,97c4.2.3,12.1,6.4,17.3,8.1s11.6,3.5,13,1.5.3-2.7.4-3.9c5.2,1.9,9.2,3.3,14.4,5.8,8.7,13.4,12.8,28.2,12.5,44.2s-3.4,21.9-7.9,32.9c-6.5,16-17.6,29.3-21.9,46.2,6.7,2.9,13.5,5.6,19.9,9.1s15.4,10.8,23.3,15.5c-6.5,1.4-10.1,1.7-14.9,6.7-8.4,8.7-10.5,21.1-8.1,32.7-7.1-1.2-14.1-2.4-21.1-3.8-5-16-18.8-31.4-36.6-20.8-10.9,6.5-11.9,21-13.3,32.3-10.8-2.4-23.6-4-31.7-13-8.5-9.5-3.7-27.8-.7-39.1,5.9-22.4,24.7-54.3,22.8-76.6,13.6,19.4,26.2,2.1,29.5-14.2,3.5-17.5,1.3-47.8-16-57.8,6.6-2.5,8.3-2.9,15.4-3.8s.9-.5,1-1c.8-.5,2-1,2.9-1Z"/>
  <path class="st4" d="M391.3,0l.5.9.5-.9c1,0,1.9,0,2.9,0l13.7,6.9c45,29.3,38.5,112.1-16.6,125.6-33.9.2-53-20.2-59.3-52.6-.8-4.1,1.5-11.3-5-9.8,0-3.3,0-5.8-1.9-8.6,9.2,1.3,5.8-3,7-8.9C339.3,20.8,358,.6,391.3,0Z"/>
  <path class="st4" d="M65,0c54.5,11.3,63.5,94.8,20,124.2-6.1,4.2-11.5,5.3-18.1,8.3-20.1.2-33.1-3.6-46-19.7C2.6,90.2-8.7,64.8,8.5,37.1,23,13.9,36.1,0,65,0ZM56.4,120c31.9.5,47.2-31.6,45.1-60-1.7-22.3-17.9-46-41.7-47.6-1,0-4.5-.7-4.3,1,43,9.7,48.8,74.1,16,99.1l-15.1,7.4ZM43.9,112.3c27.3.4,40.6-28,38.4-52.3s-15.9-39.1-36-39.9c-1.1,0-2.7-.5-2.4,1,36,9.9,40.8,63.6,12.4,84.9l-12.4,6.3Z"/>
  <path class="st2" d="M140.8,60.5l-2.9,1.5c2.7,6.2,1.7,7.8,8.7,8.1-.7,8.1-4.1,16.6-4.7,24.6s1.5,30.3,4,38,5.9,2.7,9.8-.2c12.8-9.6,22.3-24.2,37-29.7,17.4,10,19.5,40.3,16,57.8-3.2,16.3-15.9,33.6-29.5,14.2-.2-2.7-1.4-7.8-1.9-11s.3-2.2-1.4-1.4-7.5,6.2-11,8.2c-6.3,3.4-25.6,11-32.2,10.1s-3.6-1.3-5.1-3.6c-10.4-15.9-2.7-65.1-4-85.3s-.3-4.6-2-6.2c2.3-10.1,2.8-15.7,1.9-25.9,2.3-.5,9.1.7,10.4-.1s1.6-12,6.9,1.1Z"/>
  <path class="st2" d="M304,401.3c-5.7-1.5-14.8,6.5-22.1,3.8,5-21.7-1.2-48.7,0-70.6.5-9,3.3-18,3.9-26.9s.4-5-.1-6.6c-1.2-3.6-15.5-3.1-19.4-3.6s-4.7-1.5-6.4-1.8c-2.4-11.6-.3-24,8.1-32.7,4.8-5,8.4-5.3,14.9-6.7,11.5,6.8,34.5,12,36.4,27.5l-1,50.7-14.3,66.8Z"/>
  <path class="st2" d="M238.7,291.9c-.9,7.8-3.6,16.5-1.9,24.4,1.5,30.6-8.6,60.1-14.4,89.8-3.1-5-12.1.1-14.9,0s-3.8-4.1-7.1-2.8c.8-9.2,2.4-20.2,2-29.3-.5-12-2.8-22.8-2-35.5.5-7.9,4.3-20,3.8-26.7-.5-7.4-9.3-7-15.3-8.3,1.4-11.3,2.4-25.8,13.3-32.3,17.8-10.6,31.6,4.8,36.6,20.8Z"/>
  <path class="st2" d="M294.4,60.5c-.9-11.1,6.2-1.4,7.3-1.1s10.9-1.2,14.3-.9,7.5,2.5,10.1,2.9c2,2.8,2,5.3,1.9,8.6s.2,8,0,10.9c-.5,4.7-4.2,9.5-4.7,14.5-1.4,12.5,1.7,30.3,1,44.2-.3,6.4-2.3,28.9-9.4,31s-36.8-12.6-45.4-18c.3-16-3.8-30.8-12.5-44.2,3.8,1.8,6.8,3.2,10.5,5.4,5.7,3.3,23.7,17.8,28.4,17.8s3.4-1.2,4.3-3.5c2.2-5.6,5.8-28.6,5.6-34.6-.2-6.7-9.5-16.1-9.4-23.5,2,0,8,1.1,7.7-1.4-1.1-8.3-2.7-7.9-9.6-8.2Z"/>
  <path class="st3" d="M392.3,132.5c55.1-13.5,61.6-96.2,16.6-125.6L395.1,0c44.2,2,70.8,56.1,52,94.7-11.5,23.6-28.2,37.6-54.9,37.8Z"/>
  <path class="st2" d="M257.9,57.6c0,1,0,1.9,0,2.9,0,3.2-.7,6.4-1,9.6-1,10.4-.6,27.5-14.4,27.8s-3.3,0-5-.2c-3.4-.6-6.1-3.5-9.4-3.1,3.1,5.4,9.3,6.3,14.4,8.2-.1,1.2.3,2.8-.4,3.9-1.4,2-10.6-.7-13-1.5-5.2-1.7-13.1-7.8-17.3-8.1,5.3-4.5,3.4-13.9,3.8-20.2s.9-14,1.5-14.5c5.5-4,6.7,4.4,7.8,7.6s-.5,2.6,2.2,2.1c.6-3.6-1.7-10,2.2-11.8s21.9,0,28.6-2.6ZM226.7,92.2v1c.6-.3.6-.6,0-1Z"/>
  <path class="st3" d="M123.5,59.5c.9,10.2.4,15.8-1.9,25.9-6.5,28.4-25,46.8-54.7,47,6.6-2.9,12-4.1,18.1-8.3C128.5,94.8,119.5,11.3,65,0c36,0,55.5,25.3,58.5,59.5Z"/>
  <path class="st6" d="M222.4,406.1c.2.3-.1,1.8.5,2.8,3.2,4.8,8,13.5,11.5,17.3,3.7,4,19.3,10.1,9,17.8-8,6-31.9,5.1-38.2-4-9.3-13.4-6.3-22.5-5-36.8,3.3-1.2,5.1,2.7,7.1,2.8s11.8-4.9,14.9,0Z"/>
  <path class="st0" d="M257.9,57.6c-6.7,2.6-23.2.1-28.6,2.6s-1.6,8.2-2.2,11.8c-2.7.5-1.6-.5-2.2-2.1-1.1-3.2-2.4-11.6-7.8-7.6s-1.4,12.3-1.5,14.5c-2.1-1-3.1-4.5-3.8-6.7s-2.6-8-2.9-9.6c-.8-4.2-2-17.3,0-20.5s12.8-6.8,14.6-7.5c5.5-2,12.5-2.3,18.3-1.6,15.7,1.8,16.1,13.5,15.9,26.8Z"/>
  <path class="st6" d="M304,401.3c.3,0,4.7,3.3,5.3,3.8,2.8,2.2,5.4,6.3,8.2,8.1,5,3.2,30.9,9.9,17.2,20.1-10.3,7.6-27.5-1.2-38.1-4s-17.4-2.6-19.7-4-.3-9.7.8-12.6,4.1-6.9,4.3-7.7c7.2,2.7,16.4-5.3,22.1-3.8Z"/>
  <path class="st4" d="M208.9,60.5c.3,1.6,2.2,7.5,2.9,9.6-21.5-.9-43.9,1.2-65.3,0s-5.9-2-8.7-8.1l2.9-1.5h68.1Z"/>
  <path class="st4" d="M294.4,60.5c6.9.2,8.5,0,9.6,8.2.3,2.5-5.7,1.4-7.7,1.4-13.1.3-26.3-.2-39.3,0,.3-3.2.9-6.4,1-9.6,12.1.3,24.4-.4,36.5,0Z"/>
  <path class="st3" d="M391.3,0c.3,0,.6,0,1,0l-.5.9-.5-.9Z"/>
  <path class="st2" d="M208,98.9c.3-.3.6-.7,1-1,0,.5-.5.9-1,1Z"/>
  <path class="st3" d="M56.4,120l15.1-7.4c32.8-25,26.9-89.4-16-99.1-.2-1.7,3.3-1,4.3-1,23.9,1.6,40,25.2,41.7,47.6,2.1,28.4-13.2,60.5-45.1,60Z"/>
  <path class="st3" d="M43.9,112.3l12.4-6.3c28.4-21.3,23.7-75-12.4-84.9-.3-1.5,1.4-1,2.4-1,20.1.8,34.2,21.4,36,39.9s-11,52.7-38.4,52.3Z"/>
  <path class="st1" d="M242.5,97.9c-.1,1.6.2,3.2,0,4.8-5.1-1.9-11.3-2.7-14.4-8.2,3.3-.3,6,2.5,9.4,3.1s3.3.3,5,.2Z"/>
  <path class="st1" d="M226.7,92.2c.6.3.6.6,0,1v-1Z"/>
</svg>