<?xml version="1.0" encoding="UTF-8"?>
<svg id="Calque_1" xmlns="http://www.w3.org/2000/svg" version="1.1" viewBox="0 0 522.4 822.8">
  <!-- Generator: Adobe Illustrator 29.8.2, SVG Export Plug-In . SVG Version: 2.1.1 Build 3)  -->
  <defs>
    <style>
      .st0 {
        fill: #31281f;
      }

      .st1 {
        fill: #9398ab;
      }

      .st2 {
        fill: #373b4b;
      }

      .st3 {
        fill: #86a799;
      }

      .st4 {
        fill: #feb5b1;
      }

      .st5 {
        fill: #535971;
      }

      .st6 {
        fill: #545a71;
      }

      .st7 {
        fill: #8e5dd2;
      }

      .st8 {
        fill: #fdb5b1;
      }

      .st9 {
        fill: #fbf1ed;
      }

      .st10 {
        fill: #fc7e7e;
      }
    </style>
  </defs>
  <path class="st10" d="M4.7,195.6c2.4,1.3,20.8,3.5,21,4.5.3,1.6.6,2.7-1.4,2.4-6.3-.7-13.1-3.6-19.6-3.9,0-1.3,0-1.6,0-3Z"/>
  <path class="st10" d="M5.7,181.6l22,4.5c.5,2.5-3.1,1.6-4.4,1.4-5.6-.8-11.9-2.8-17.6-3.9,0-.1-.4,0,0-2Z"/>
  <path class="st10" d="M5.7,210.6c2.5.6,18.6,3.5,19,4.5.8,2.2-2.3,1.6-3.5,1.5-5-.5-10.3-3.1-15.5-3-.5-2.3,0-2.8,0-3Z"/>
  <g>
    <path class="st2" d="M13.7,224.6c2.7.8,15,2.1,15.8,3.2l4.2,13.8c1.5,5.1-.8,5.8,5.1,10.4,42.7,28.5,89.6,53.2,131.8,82.2,2.7,1.9,7,3.8,7.8,7.2,3.1,13.3-9.2,18.7-18.7,10.3l-70.6,130.5,54.1,107.5,3.7.8c30.2-9.2,60.9-16.5,91.8-22.8,2.3,29.3,6.3,58.6,8,88-2.4.9-3.8,7-5,8.5-2.2,2.7-25,15.8-30.3,19.7-5.3,3.9-23.8,17-23.7,23.4s5.3,3.3,7.5,3.5c14.3,1.2,28.5-.8,42.5-2l2,25c27.4-2.7,55.3-6.8,82.1-11.6-.3-2.7.2-5.7,0-8.4,32.2,5.1,65.1-14.1,75.5-45,19.2-57.3-37.7-108.1-92.5-85,0-2,0-4,0-6s0-2,0-3c0-2,0-4,0-6s0-1.3,0-2c0-3,0-6,0-9s0-.7,0-1c1,0,2,0,3,0,33.6-2.7,67.3-5.5,101-7,19-.8,43.3-3.4,61.5-2.8,34.8,1.1,41.6,32.4,48.2,59.6,2.7,11,5.5,18.9,3,30.4-7.1,32.7-43.4,36.1-69.7,45.8l48.5,81c10,17.9,2.7,36.3-3.7,53.9l-43.9-.9c1.3-1.4,3.8-8.2,4-10.5,3.2-31-42.5-28.7-38.9,0,.2,1.9,3.8,10.4,4.9,11.6H94.7c3.1-7.8,6.5-15.4,2.2-23.7-9.9-19.2-39.9-10.1-37.1,12.1.3,2.1,3.7,10.2,4.9,11.6-5.1-.9-14.4,2.9-15.7-3.8-13.3-59-22.9-119.2-35.3-178.2,9.5-3.1,18.6-7.5,28-11,22.1-8.2,45.2-14.8,67-23.5l-40-81.5c-5.9-12-12.1-24-18-36,.2-.3-.2-2.7.5-4,26-49.1,52.9-97.7,79.4-146.5L15.7,256.2c-4.4-5.2-.8-24.3-2-31.5Z"/>
    <path class="st4" d="M290.7,144.6c17.6,12.3,27.7,31.8,20.7,53.2-6.7,20.6-21.8,51.8-32.7,70.8-11.2,19.5-39,60.8-62.6,63.9-33.9,4.5-98.1-40.4-125.3-60.5-7.1-5.2-21.4-19.1-27.7-22.3-7.4-3.8-22.6,0-29.4-8.1l-4.2-13.8c-.8-1.1-13.1-2.4-15.8-3.2-5.7-1.7-6.8-5.4-8-11,5.2,0,10.5,2.5,15.5,3s4.3.7,3.5-1.5-16.5-3.9-19-4.5c-.6-4.2-.9-7.7-1-12,6.5.3,13.2,3.3,19.6,3.9,2,.2,1.8-.9,1.4-2.4s-18.6-3.2-21-4.5c.1-3.7.5-8.4,1-12,5.7,1.1,12,3.1,17.6,3.9s4.9,1.1,4.4-1.4l-22-4.5c.9-4.5,2.6-9.1,8-9s14.3,1.8,20,3c5.9,1.2,25.9,7.2,29.4,11.1,4.5,4.8,9.8,29.6,13.2,32l110.3,29.9c-1.4,4.1-2.5,9.7-3,14,4.7-1,4-9.8,6-13.5l-3-.5c.5-1.3,2.1-2.8,2.8-4.7,4-11.2,30.1-88.7,34.2-91.3s2,.9,3,.4c1.5-.6,7.2-7.2,10.7-9.2,5.7-3.4,10.2-4.1,16.3-5.7s3.5.1,3-2.5c12.5-.2,23,3.9,34,9Z"/>
    <path class="st2" d="M156.7,75.6c-1,.1-5,.3-5-.5,3.1-31.5,18.7-48.3,51.5-45.5,9,.8,16.3,4.7,24.8,7.1,17-23.1,42.9-43.9,73.5-34.3,33.2,10.3,42.6,38.8,61.8,62.2,14.6,17.7,25.9,10.6,45.9,12.1,26.8,2,45.4,16.4,54.3,41.7,23.1,66.5-57,89.1-101.3,51.3-36.3-31-30.8-81.4-65.5-110.5-14.6-12.3-35.6-19.8-52-6,15.5,18.4,14.9,56.1-11.1,64.5-6.5.4-12-2.7-14.9-8.5,21.8-11.9,12.3-37.5-11.9-22.3,1.1,16.3,1,31.6-1.2,47.8-.2,1.3.2,2.8,0,4-.9,5.1-3.3,9.9-4,15-1.7.2-.9-2.3-1-3.5-.1-3.2,0-6.4,0-9.5,0-17-.6-36.2-4.9-52.6-1.7-6.5-1.6-10.9-8.9-12.1-10.2-1.7-20.3-1.5-30.2-.3Z"/>
    <path class="st7" d="M420.7,298.6c-3.3-1.1-9.1-1-12-2s-2.4-2-3.5-3c-1,0-.2,1.8-.5,2-1.3,1-27.6-.4-32.5,0-30.8,2.6-49.1,15.9-75.5,27-.2-3.2.3-6.4,0-9.5s-1-2.6-1-3v-20c0-.3-.9-1.7-1-3-.2-3,.5-6.9,0-9.5,3.8-2.5,8.6-4.7,12.1-7.4s2.6-.3,1.9-2.1-1.6-1.5-3.1-1.1c-2.1.6-9.8,6.8-11.9,8.6-2-2.1-11.8-5.5-15-7,10.9-19,26.1-50.1,32.7-70.8,7-21.4-3.2-40.9-20.7-53.2,62.2,28.5,105.1,92.5,130,154Z"/>
    <path class="st1" d="M390.7,467.6c.2,0,.8.9,1.6.9,15.2,1.1,30.8,2.5,44.5,9.7l-28.1,71.4c-33.7,1.5-67.4,4.3-101,7,1.9-5.9,3.3-12,5-18,6.5-22.1,13.3-44.2,19.9-66.3,1.4-2.2,20.1-3.4,24.1-3.7,10.9-.8,23.1-1.7,34-1Z"/>
    <path class="st1" d="M50.7,483.6c5.9,12,12.1,24,18,36-2.6.2-4.5,5.5-5.8,7.7-10.7,18.6-21.1,37.4-31.9,56l10.7,41.3c-9.4,3.5-18.5,7.9-28,11,0-.2-1.5-.5-1.9-2.5C7.9,614.5,4,595.9,0,577.3c17-30.1,31.8-61.4,47.9-92,.9-1.8,2.7-1.5,2.8-1.7Z"/>
    <path class="st3" d="M420.7,298.6c1.5,3.7,3.8,7,5.3,11.2,5.4,15.9,4.6,30.7.7,46.8-2.3,1.4-4.4,8.3-6.2,11.3-9.7,15.7-23.9,28.1-34.8,42.7-2.9.9-13.8,14.7-17,18-3.1,3.2-19.3,17.8-20,19l-15-17.5c20.2-17.4,41.3-36.2,57.4-57.6,17.1-22.7,26.1-47.4,17.6-75.9,2.9,1,8.7.9,12,2Z"/>
    <path class="st8" d="M200.7,140.6c-17.8,8.4-33.2,1.7-40.1-16.4s-.7-5.7-1.4-6.6c-1.3-1.9-5.8,0-7.1-1.9-2.1-3,4.9-11.5,5.4-14.8.5-3.8-1.8-12.6-1.8-16.8,0-2.9,1.5-5.5,1-8.5,10-1.3,20-1.4,30.2.3,7.3,1.2,7.2,5.6,8.9,12.1,4.3,16.4,4.8,35.7,4.9,52.6Z"/>
    <path class="st2" d="M410.7,405.6c-7.8,2.1-18.5,3-25,5,10.9-14.6,25.1-27,34.8-42.7,1.8-3,3.9-9.9,6.2-11.3,4.9-3,29.1-7.6,34.3-5.8,2.5.8,4.5,8.9,4.7,11.4,1.5,25.8-35.3,38.3-55,43.5Z"/>
    <path class="st6" d="M390.7,467.6c-10.9-.7-23.1.2-34,1l12-40c3.2-3.3,14.1-17.1,17-18,6.5-2,17.2-2.9,25-5l-20,62Z"/>
    <path class="st8" d="M221.7,98.6c-.2.6.2,1.5,0,2s-.7.7-1,1-.9,1-1,1c-3.4.8-1.6-1.3-1-3,.3,0,2.2-.8,3-1Z"/>
    <path class="st8" d="M233.7,117.6l21,18c-11.7.8-20.6,6.5-29,14-1.1-8.9-6.1-18.2-5-27-6.4,1.9-7.8,10.7-15,12,2.2-16.2,2.2-31.5,1.2-47.8,24.2-15.1,33.7,10.4,11.9,22.3,2.9,5.8,8.5,8.9,14.9,8.5ZM223.7,97.6c.7-.3,1.4.6,2.2-1.3,2.9-6.8-2.1-15.5-8.2-9.7,7.9.2,2.5,8.5,1,13-1.9,0-6.3-2.3-7,0,4.8-.9,4.2,1.2,5,5,2.2.6,2.2-1.3,3-2s.6-.7,1-1,.6-.7,1-1,1.3.4,1.8-.2,0-2.1.2-2.8ZM216.7,86.7c-1.8-.7-4.9,3-4,4,1.8.7,4.9-3,4-4Z"/>
    <path class="st8" d="M223.7,97.6c-.6.3-1.4.8-2,1,.9-3.3,1.8-7.5,1.5-11,2.9,2.6,1.3,6.8.5,10Z"/>
    <path class="st1" d="M94.7,817.6c-3.7-.2-5.8,3.3-9.2,4.3-5.8,1.7-16.7.4-20.8-4.3s-4.6-9.5-4.9-11.6c-2.8-22.2,27.2-31.3,37.1-12.1,4.3,8.3.9,15.9-2.2,23.7ZM85.5,809.4c7.3-7.3-2.7-20.5-11.8-12.3-9,8.1,4.5,19.6,11.8,12.3Z"/>
    <path class="st1" d="M422.7,817.6c-1.1-1.2-4.7-9.6-4.9-11.6-3.6-28.6,42.1-30.9,38.9,0-.2,2.2-2.7,9-4,10.5-4.3,4.7-15.1,7-21.3,5.8-.9-.2-8.4-4.4-8.7-4.8ZM443.4,809.3c8.2-7.5-4.2-21.2-12.2-11.7-7,8.3,4.4,18.9,12.2,11.7Z"/>
    <path class="st2" d="M33.7,175.6c-5.7-1.2-14.6-2.9-20-3,1.3-7.2-3.3-28.2,3.7-31.8,5.6-2.9,13.1-.7,15.1,5.5l1.2,29.3Z"/>
    <path class="st10" d="M205.7,134.6c7.2-1.3,8.6-10.1,15-12-1.1,8.8,4,18.1,5,27,8.4-7.5,17.3-13.2,29-14,.7,0,1.3,0,2,0,.6,2.6-1.3,2-3,2.5-6.2,1.6-10.7,2.4-16.3,5.7s-9.2,8.6-10.7,9.2-2.7-.6-3-.4c0-2.2-1.3-2.7-2.7-3.8-4.1-3.6-10.1-8.9-15.3-10.2.2-1.2-.2-2.7,0-4Z"/>
    <path class="st4" d="M245.7,415.6c-1.6.3-4.6,1.1-6,1-3.5-.3-11-7.5-14.7-8.8s-4-1-3.3,1.3,15.5,9.9,18,9.5c.3,2.2,7,14.3,8.5,15s3.1-5.7,4.4-6.6c1.1-1.1.7-3.6,1.1-4.4.6-1.2,1.4-2.8,2-4,.8-1.6,2.8-4.9,4-7s1.6,1.8,2-3c18.3,10.2,37.5,24.4,51.5,40,2.2,2.4,5.3,6,6.5,9-2.4,2.6-9.2,11.5-10.8,14.7-6.1,12-4.7,37.5-5.2,51.3-.4,10-1.3,20.2-1,30.5,0,1.9-1,4,2,3.5,0,3,0,6,0,9l-1,1.5,1,.5c0,2,0,4,0,6-1.5.1-1.5,2.9,0,3,0,2,0,4,0,6,.2,8,.7,16,1,24,.1,3.3,1,8.2,1,10.5v20c0,.4,1,1.7,1,3,.2,5.8-.2,11.7,0,17.5-8.7,3.4-24.3,8.2-33.3,6s-1.8-3.7-3.1-5.1c-3-3.2-9.7-4.9-14-5s-9.5.7-10.5,1.1c-1.7-29.4-5.7-58.7-8-88-.7-8.3-1.4-16.7-2-25,0-.2,1.1-2.2,1.1-4.5-.3-19.3-7.7-47.3-3.6-65.6,3-13.3,10.7-25.4,15.5-38-2.2-2.3-7.6,10.1-8.2,11.3-16,32.8-10,55.8-6.8,90.7-2.3.1-2.6-1.5-3.6-2.9-9.3-12.4-19-27.4-27.6-40.4-16-24.1-52.1-78.9-47.3-107.8,3.3-19.9,35.1-28.3,50.5-35.9.3,0,.7,0,1,0,18.5,18,31.1,41.2,38,66Z"/>
    <path class="st5" d="M321.7,713.6c-.5-4.4-2.8-10.2-3.1-14.9-.4-.3-4.8-.2-5.9-.1,2.6-2.6,2-5.6,2-9,13.3,3.4,23.6,4.4,36.5-1,37.2-15.4,36.8-70.2-.8-85.2-16.5-6.6-29.4-3.7-44.7,4.2-.3-8-.8-16-1-24,54.8-23.1,111.7,27.6,92.5,85-10.4,31-43.3,50.1-75.5,45Z"/>
    <path class="st9" d="M246.7,655.6c1-.4,8.9-1.1,10.5-1.1,4.3.1,11.1,1.8,14,5s2.4,4.9,3.1,5.1c9.1,2.2,24.6-2.7,33.3-6s.7.1,1,0c1.2,8.8,5.2,18.3,6,27,.1,1.3,0,2.7,0,4,0,3.4.6,6.4-2,9-5.6.5-12.5,3-18.6,3.9-18.6,2.6-37.6,4.5-56.4,6.1-14.1,1.2-28.3,3.2-42.5,2-2.2-.2-7.4-.5-7.5-3.5,0-6.4,18.4-19.5,23.7-23.4,5.3-3.9,28.1-17,30.3-19.7s2.6-7.5,5-8.5Z"/>
    <path class="st1" d="M312.7,698.6c1.1-.1,5.5-.2,5.9.1.3,4.7,2.6,10.5,3.1,14.9s-.2,5.7,0,8.4c-26.8,4.8-54.6,8.9-82.1,11.6l-2-25c18.7-1.6,37.8-3.5,56.4-6.1,6.1-.8,13-3.3,18.6-3.9Z"/>
    <path class="st8" d="M312.7,538.6c-1.7,6-3.1,12.1-5,18-1,0-2,0-3,0,0-9.3.2-18.7,0-28,4.2.7,4.8,7.3,8,10Z"/>
    <path class="st10" d="M304.7,528.6c.2,9.3,0,18.7,0,28,0,.3,0,.7,0,1-3,.6-1.9-1.5-2-3.5-.3-10.4.6-20.6,1-30.5,1.6.8,1,3.4,1,5Z"/>
    <path class="st10" d="M304.7,577.6c-1.5-.1-1.5-2.9,0-3,0,1,0,2,0,3Z"/>
    <path class="st10" d="M304.7,568.6l-1-.5,1-1.5c0,.7,0,1.3,0,2Z"/>
    <path class="st10" d="M186.7,248.6l3,.5c-2,3.7-1.3,12.5-6,13.5.5-4.3,1.6-9.9,3-14Z"/>
    <path class="st3" d="M404.7,295.6c12,29.1-.8,56.5-19,79.5-15.5,19.5-35,37-53.9,53.1-19.1-14.6-40-27.5-63.1-34.6l.5-2.9,31.1-50c.4-1.3-1.1-13.5-1.6-14-1.4-1.5-1.8.1-2,1.5-.5,3.5.7,6.7,1.1,10-10.9,20.7-24.6,40.2-36.6,60.5-2.4-5.8-3.8-11.9-6.3-17.7-4-9.1-11.3-19.6-18.6-26.4-4.2-3.9-9.8-6.6-13.5-11,22.1-6.2,53.9-12.5,74-21s44.7-24.4,75.5-27c4.8-.4,31.2,1,32.5,0Z"/>
    <path class="st0" d="M408.7,296.6c8.5,28.5-.5,53.2-17.6,75.9-16.1,21.4-37.2,40.2-57.4,57.6l15,17.5c-1.2,2.1.4.6-2,3-8.9-14.4-23.7-26.5-38.1-35.4-5.8-3.6-37.6-20.4-42.3-19.7s-4.4,9.7-4.6,12.1,0,.7,0,1c-.4,4.8-1.7,2.4-2,3-1.6-21.2-10.5-41.8-26.5-56-4.5-4-10-6.9-14.5-11,1.5-.4,2.8-.7,4-1,3.7,4.3,9.3,7.1,13.5,11,7.3,6.8,14.6,17.3,18.6,26.4,2.6,5.8,4,11.8,6.3,17.7,12-20.2,25.7-39.8,36.6-60.5-.4-3.4-1.6-6.6-1.1-10,.2-1.4.6-3,2-1.5s2,12.7,1.6,14l-31.1,50-.5,2.9c23.1,7.2,44,20,63.1,34.6,18.9-16.1,38.4-33.6,53.9-53.1,18.2-22.9,31.1-50.3,19-79.5.3-.2-.5-2.1.5-2,1.1,1,2.1,2.5,3.5,3Z"/>
    <path class="st0" d="M293.7,275.6c2.2-1.8,9.9-8,11.9-8.6s2.5-.3,3.1,1.1-1.1,1.5-1.9,2.1c-3.5,2.7-8.3,5-12.1,7.4,0-.1-.9-1.9-1-2Z"/>
    <path class="st10" d="M223.7,97.6c-.2.7.4,2.1-.2,2.8s-1.6,0-1.8.2c.2-.5-.2-1.4,0-2,.6-.2,1.4-.7,2-1Z"/>
    <path class="st10" d="M218.7,99.6c1.5-4.5,6.9-12.8-1-13,6.1-5.8,11,2.9,8.2,9.7s-1.5,1-2.2,1.3c.8-3.1,2.4-7.4-.5-10,.3,3.5-.5,7.6-1.5,11-.8.2-2.7,1-3,1Z"/>
    <path class="st10" d="M218.7,99.6c-.6,1.7-2.4,3.8,1,3-.8.6-.8,2.6-3,2-.8-3.8-.2-5.9-5-5,.7-2.3,5.1,0,7,0Z"/>
    <path class="st10" d="M220.7,101.6c.3-.3,1-.9,1-1-.4.3-.6.7-1,1Z"/>
    <path class="st10" d="M219.7,102.6c0,0,.7-.7,1-1-.4.3-.6.7-1,1Z"/>
    <path class="st10" d="M216.7,86.7c.9.9-2.2,4.6-4,4-.9-.9,2.2-4.6,4-4Z"/>
    <path class="st2" d="M85.5,809.4c-7.3,7.3-20.7-4.1-11.8-12.3,9-8.2,19,5,11.8,12.3Z"/>
    <path class="st2" d="M443.4,809.3c-7.8,7.1-19.3-3.5-12.2-11.7,8.1-9.5,20.5,4.2,12.2,11.7Z"/>
    <path class="st1" d="M314.7,689.6c0-1.3.1-2.7,0-4l24.9-39.4c-.4-2.2-10.5-9.4-13.2-10.6-2.5.4-12.1,19-15.2,21.9s-1.6.7-2.4,1-.7-.1-1,0c-.2-5.8.3-11.7,0-17.5,0-1.3-1-2.6-1-3v-20c0-2.3-.9-7.2-1-10.5,15.3-7.9,28.1-10.8,44.7-4.2,37.6,15.1,38,69.8.8,85.2-12.9,5.4-23.3,4.4-36.5,1Z"/>
    <path class="st10" d="M330.7,447.6c-2.7.4-3.4,4.4-4,5-.9.9-5.2,3-7,5-1.2-3-4.3-6.6-6.5-9-14.1-15.6-33.2-29.8-51.5-40,0-.3,0-.7,0-1,1.6-.5,1.7-3.6,2.1-3.9,3.2-2.4,31.1,14.6,35.6,17.7,11.8,8,20.9,16.8,31.3,26.2Z"/>
    <path class="st3" d="M218.7,344.6c4.5,4.1,10,6.9,14.5,11,16,14.2,24.9,34.8,26.5,56-1.2,2.1-3.2,5.4-4,7-.7-1.6-1.7-4.4-2-6-3.1-16.2-7.6-28.1-18.5-41-4.3-5.1-21.6-22.1-27.5-22s-.7,0-1,0c.1-3.9,8.6-4,12-5Z"/>
    <path class="st10" d="M253.7,412.6c-2.2.4-5.3,2.5-7,3s-.7,0-1,0c-6.9-24.8-19.5-48-38-66,5.9-.1,23.2,16.9,27.5,22,10.9,12.9,15.3,24.8,18.5,41Z"/>
    <path class="st10" d="M234.7,536.6c-3.2-34.9-9.1-57.9,6.8-90.7.6-1.2,6-13.6,8.2-11.3-4.8,12.6-12.6,24.7-15.5,38-4.1,18.3,3.3,46.3,3.6,65.6,0,2.3-1.1,4.2-1.1,4.5-2.8-.9-1.8-3.9-2-6Z"/>
    <path class="st6" d="M255.7,418.6c-.6,1.2-1.4,2.8-2,4l-7-7c1.7-.5,4.8-2.6,7-3,.3,1.6,1.3,4.4,2,6Z"/>
    <path class="st10" d="M239.7,416.6c0,.7,0,1.4,0,2-2.5.4-17.7-8.5-18-9.5-.8-2.2,2.2-1.6,3.3-1.3,3.8,1.3,11.2,8.5,14.7,8.8Z"/>
    <path class="st6" d="M314.7,685.6c-.8-8.7-4.8-18.2-6-27,.8-.3,1.3,0,2.4-1,3-2.9,12.6-21.5,15.2-21.9,2.7,1.2,12.8,8.3,13.2,10.6l-24.9,39.4Z"/>
    <path class="st3" d="M346.7,450.6c-1.5,1.5-4,5.5-6,6-2.1-4.2-6.9-6.2-10-9-10.4-9.4-19.4-18.2-31.3-26.2s-32.4-20.1-35.6-17.7-.5,3.4-2.1,3.9c.3-2.4,2.2-11.7,4.6-12.1,4.7-.8,36.5,16.1,42.3,19.7,14.4,8.9,29.2,21,38.1,35.4Z"/>
    <path class="st6" d="M340.7,456.6c-3.1.7-11.4-2-14-4,.6-.6,1.3-4.6,4-5,3.1,2.8,7.9,4.8,10,9Z"/>
  </g>
</svg>